<?xml version="1.0" standalone="no"?>
<!DOCTYPE svg PUBLIC "-//W3C//DTD SVG 20010904//EN"
 "http://www.w3.org/TR/2001/REC-SVG-20010904/DTD/svg10.dtd">
<svg version="1.0" xmlns="http://www.w3.org/2000/svg"
 width="600.000000pt" height="600.000000pt" viewBox="0 0 600.000000 600.000000"
 preserveAspectRatio="xMidYMid meet">
<metadata>
Created by potrace 1.14, written by Peter Selinger 2001-2017
</metadata>
<g transform="translate(0.000000,600.000000) scale(0.100000,-0.100000)"
fill="#000000" stroke="none">
<path d="M1985 5553 c-33 -3 -165 -23 -205 -30 -46 -8 -199 -54 -257 -77 -336
-133 -610 -355 -807 -654 -94 -142 -208 -406 -229 -527 -3 -16 -13 -68 -23
-115 -12 -60 -18 -136 -18 -260 -1 -218 7 -289 55 -465 11 -44 23 -90 26 -103
3 -12 9 -25 14 -28 5 -3 9 -12 9 -20 0 -25 71 -174 128 -268 144 -240 324
-425 560 -573 48 -30 110 -65 137 -77 28 -13 70 -33 95 -44 71 -33 223 -80
328 -101 442 -89 913 5 1281 255 51 35 96 64 100 64 10 0 211 -201 211 -211 0
-4 -8 -23 -19 -41 -24 -44 -27 -127 -6 -170 9 -18 378 -394 818 -836 726 -726
807 -804 850 -818 53 -18 109 -14 156 10 14 8 95 83 180 167 173 172 197 210
188 290 -3 26 -13 61 -21 76 -20 40 -1597 1612 -1637 1634 -47 25 -122 24
-177 -2 l-44 -22 -108 108 -109 108 33 41 c161 201 289 529 322 823 9 74 10
283 3 333 -4 25 -10 72 -14 105 -3 32 -8 62 -10 65 -2 4 -7 22 -10 41 -16 98
-70 251 -135 384 -195 400 -553 713 -978 855 -64 21 -130 41 -147 44 -16 3
-41 8 -55 11 -14 3 -43 8 -65 11 -22 3 -47 8 -55 11 -17 6 -318 11 -365 6z
m345 -406 c8 -4 29 -8 45 -10 94 -14 268 -76 380 -137 158 -85 341 -251 442
-400 271 -403 301 -923 76 -1340 -154 -286 -421 -512 -726 -616 -190 -65 -451
-85 -637 -49 -14 3 -38 7 -55 10 -72 14 -227 71 -309 113 -286 147 -505 391
-621 690 -105 274 -109 616 -10 892 127 352 399 634 740 767 110 43 147 53
275 76 73 13 367 16 400 4z"/>
</g>
</svg>
